<svg version="1.2" xmlns="http://www.w3.org/2000/svg" viewBox="0 0 188 31" width="188" height="31">
	<title>MAGbank</title>
	<style>
	</style>
	<path id="MAGbank" fill="#ffffff" aria-label="MAGbank"  d="m31.71 2.05l-13.69 17.44l-7-17.44h-5.28l-5.6 28.01h6.08l3.36-16.81l5.76 13.85h2.88l10.69-13.69l-3.28 16.65h6.08l5.56-28.01zm24.89 28.01h6.48l-6.88-28.01h-6.4l-18.13 28.01h6.92l3.64-6h13.05zm-11.37-10.93l6.61-10.8l2.36 10.8zm37.57 4.88c-1.48 0.68-3 1-4.64 1c-5.32 0-8.12-2.84-8.12-7.04c0-6.16 4.2-10.88 10.76-10.88c3.12 0 5.44 0.88 7.32 3.12l4.64-3.76c-2.4-3.16-6.32-4.88-11.68-4.88c-10.6 0-17.61 7.24-17.61 16.8c0 7.24 5.37 12.17 13.85 12.17c4.04 0 7.88-1.24 10.72-3.4l2.32-11.53h-5.92zm22.69-15c-3.68 0-6.68 1.52-8.68 4.08l2.52-12.73h-2l-5.93 29.69h1.96l1.04-5.32c1.01 3.48 3.89 5.48 8.29 5.48c6.84 0 11.84-5.32 11.84-12.52c0-5.36-3.64-8.68-9.04-8.68zm-2.76 19.4c-4.72 0-7.44-2.56-7.44-7c0-6.16 4.16-10.6 9.8-10.6c4.68 0 7.4 2.56 7.4 7c0 6.12-4.12 10.6-9.76 10.6zm35.05-19.24l-1.04 5.2c-1-3.4-3.88-5.36-8.24-5.36c-6.85 0-11.81 5.32-11.81 12.52c0 5.36 3.6 8.68 9.01 8.68c3.72 0 6.8-1.6 8.8-4.24l-0.8 4.08h1.92l4.16-20.88zm-11.68 19.24c-4.69 0-7.41-2.56-7.41-7c0-6.12 4.17-10.6 9.81-10.6c4.68 0 7.4 2.56 7.4 7c0 6.16-4.16 10.6-9.8 10.6zm28.89-19.4c-3.57 0-6.61 1.28-8.65 4.12l0.8-3.96h-1.96l-4.16 20.88h2l2.28-11.36c1.04-5.2 4.4-7.88 9.17-7.88c3.92 0 5.88 1.92 5.88 5.16c0 0.64-0.04 1.28-0.2 2l-2.4 12.08h2l2.4-12.08c0.16-0.8 0.24-1.56 0.24-2.28c0-4.12-2.6-6.68-7.4-6.68zm32.21 0.16h-2.92l-15.57 12.12l4.16-20.93h-2l-5.92 29.69h2l1.24-6.16l6.48-5l6.77 11.16h2.32l-7.53-12.36z" />
</svg>